<?xml version="1.0" standalone="no"?>
<!DOCTYPE svg PUBLIC "-//W3C//DTD SVG 20010904//EN"
 "http://www.w3.org/TR/2001/REC-SVG-20010904/DTD/svg10.dtd">
<svg version="1.0" xmlns="http://www.w3.org/2000/svg"
 width="550.000000pt" height="550.000000pt" viewBox="0 0 479.000000 479.000000"
 preserveAspectRatio="xMidYMid meet">

<g transform="translate(0.000000,479.000000) scale(0.100000,-0.100000)"
fill="#e48304" stroke="none">
<path d="M2695 4205 c-326 -48 -1080 -153 -1585 -220 -509 -67 -671 -92 -718
-108 -140 -49 -226 -187 -239 -388 -7 -107 11 -258 42 -349 21 -63 84 -172
106 -186 22 -13 2 -25 -93 -54 -132 -40 -155 -66 -102 -115 14 -13 48 -32 76
-42 94 -33 144 -114 168 -267 10 -66 5 -224 -9 -243 -3 -5 -26 -15 -51 -22
-98 -28 -248 -93 -270 -116 l-23 -24 24 -9 c13 -5 40 -13 59 -17 58 -12 63
-22 30 -63 -39 -49 -75 -125 -91 -192 -18 -75 -15 -257 6 -354 28 -133 61
-202 129 -271 l61 -62 165 -52 c363 -116 1379 -447 1556 -506 l70 -24 80 18
c74 17 303 73 1129 276 187 46 417 102 510 124 198 46 872 209 898 217 9 3 17
14 17 25 0 25 -72 61 -215 109 -127 43 -123 36 -124 182 -1 105 11 177 41 248
28 64 53 88 134 126 118 54 129 101 31 135 -26 8 -50 19 -54 22 -3 4 15 28 42
54 99 98 148 252 149 473 1 154 -11 208 -69 304 -20 33 -32 62 -28 66 4 4 56
18 115 30 127 28 137 33 122 57 -16 25 -92 62 -219 104 l-110 37 -8 79 c-8 86
5 215 29 285 22 66 69 116 139 150 106 50 132 101 67 127 -30 12 -488 153
-747 230 -768 229 -848 251 -899 250 -28 -1 -181 -21 -341 -44z m-2020 -567
c377 -119 448 -142 974 -316 l534 -176 -8 -285 c-4 -158 -10 -289 -14 -294 -8
-8 -217 49 -1286 353 -209 59 -393 111 -410 114 -107 26 -167 163 -167 380 0
174 37 268 113 286 42 10 32 12 264 -62z m3740 -75 c-44 -105 -49 -137 -49
-308 l1 -171 -736 -183 c-1119 -279 -1371 -341 -1377 -341 -9 0 7 541 17 566
6 16 22 24 71 33 35 7 169 34 298 61 1428 298 1722 358 1754 359 23 1 27 -2
21 -16z m10 -777 c61 -40 93 -186 76 -350 -12 -120 -38 -198 -84 -250 -30 -35
-44 -41 -192 -82 -88 -25 -317 -89 -510 -143 -192 -55 -442 -125 -555 -156
-113 -32 -275 -77 -360 -101 -85 -24 -157 -40 -161 -36 -4 4 -10 136 -14 294
-6 240 -5 288 6 292 79 26 997 325 1204 392 149 47 322 104 385 125 120 41
161 44 205 15z m-3745 -161 c124 -26 367 -75 540 -110 173 -35 448 -91 610
-125 162 -34 385 -79 495 -102 110 -23 203 -45 206 -50 7 -11 22 -568 16 -574
-2 -3 -220 49 -483 115 -264 66 -739 184 -1057 263 l-577 143 6 120 c7 134 -6
251 -37 322 -10 25 -19 47 -19 50 0 8 51 -1 300 -52z m5 -836 c187 -61 525
-171 750 -244 226 -74 448 -146 495 -161 47 -15 90 -32 97 -38 9 -8 9 -78 1
-291 -6 -154 -13 -283 -17 -286 -3 -4 -76 13 -161 38 -85 24 -261 73 -390 109
-129 36 -354 99 -500 140 -146 41 -314 89 -375 106 -338 93 -343 95 -385 182
-47 97 -64 300 -36 419 15 65 59 127 97 139 38 11 65 4 424 -113z m3585 -14
c0 -3 -9 -32 -20 -64 -31 -92 -43 -222 -32 -326 6 -49 9 -91 7 -93 -6 -6
-2050 -516 -2100 -524 -19 -3 -20 2 -16 172 2 96 6 227 10 290 l6 115 105 21
c58 11 160 33 227 47 90 19 130 23 153 17 25 -7 56 -1 158 32 70 22 167 49
217 59 49 11 277 57 505 104 228 47 467 96 530 110 216 46 250 52 250 40z"/>
</g>
</svg>
