<?xml version="1.0" standalone="no"?>
<!DOCTYPE svg PUBLIC "-//W3C//DTD SVG 20010904//EN"
 "http://www.w3.org/TR/2001/REC-SVG-20010904/DTD/svg10.dtd">
<svg version="1.0" xmlns="http://www.w3.org/2000/svg"
 width="512.000000pt" height="512.000000pt" viewBox="0 0 512.000000 512.000000"
 preserveAspectRatio="xMidYMid meet">

<g transform="translate(0.000000,512.000000) scale(0.100000,-0.100000)"
fill="#000000" stroke="none">
<path d="M1190 4314 c-14 -2 -65 -9 -115 -15 -106 -13 -375 -79 -443 -109 -76
-34 -118 -83 -146 -172 -4 -14 -16 -18 -54 -18 -116 0 -211 -56 -251 -150
l-21 -49 2 -1379 3 -1379 30 -49 c19 -30 49 -60 79 -79 l49 -30 945 -3 944 -2
32 -25 c67 -51 90 -55 316 -55 226 0 249 4 316 55 l32 25 944 2 945 3 49 30
c30 19 60 49 79 79 l30 49 0 1391 0 1391 -22 42 c-44 82 -138 133 -245 133
-38 0 -50 4 -54 18 -42 132 -98 170 -343 232 -222 56 -294 64 -571 64 -283 0
-354 -8 -586 -69 -161 -42 -311 -99 -460 -176 l-114 -58 -114 58 c-250 128
-523 210 -798 240 -90 10 -400 13 -458 5z m450 -164 c244 -30 490 -103 701
-208 l134 -67 3 -1227 c1 -676 1 -1228 -1 -1228 -2 0 -55 23 -118 51 -338 152
-673 218 -1039 206 -189 -6 -319 -24 -473 -62 -128 -33 -160 -32 -186 1 -21
27 -21 28 -21 1203 0 1367 -18 1202 138 1251 204 63 373 88 607 89 94 1 209
-4 255 -9z m2350 -5 c138 -18 234 -39 352 -75 156 -49 138 116 138 -1251 0
-1175 0 -1176 -21 -1203 -25 -32 -63 -34 -169 -5 -218 58 -550 83 -785 60
-251 -25 -511 -95 -744 -200 -63 -28 -116 -51 -118 -51 -2 0 -2 552 -1 1228
l3 1227 134 67 c204 102 455 178 686 207 113 14 410 12 525 -4z m-3510 -1412
c1 -900 3 -1115 14 -1146 20 -54 61 -104 105 -127 34 -17 39 -25 45 -64 10
-67 60 -135 125 -168 l53 -28 669 0 669 0 0 -80 0 -80 -895 0 -896 0 -24 25
-25 24 0 1346 0 1347 29 29 c25 24 37 29 80 29 l51 0 0 -1107z m4291 1078 l29
-29 0 -1347 0 -1346 -25 -24 -24 -25 -896 0 -895 0 0 80 0 80 669 0 669 0 53
28 c65 33 115 101 125 168 6 39 11 47 45 64 44 23 85 73 105 127 11 31 13 246
14 1146 l0 1107 51 0 c43 0 55 -5 80 -29z m-3114 -2306 c163 -22 286 -50 422
-97 64 -22 118 -42 120 -44 2 -2 -300 -4 -673 -4 l-677 0 -24 25 c-38 37 -32
51 33 68 234 63 551 84 799 52z m2408 -9 c96 -17 245 -53 252 -60 10 -10 -10
-47 -31 -61 -20 -13 -115 -15 -697 -13 l-674 3 140 47 c134 45 290 80 433 98
106 14 474 4 577 -14z m-1265 -391 c0 -88 -2 -98 -25 -120 -24 -25 -26 -25
-215 -25 -189 0 -191 0 -215 25 -23 22 -25 32 -25 120 l0 95 240 0 240 0 0
-95z"/>
<path d="M1220 3750 c-58 -5 -148 -15 -200 -24 -78 -13 -99 -21 -117 -42 -29
-32 -29 -66 0 -100 28 -32 41 -33 192 -9 133 21 417 24 555 6 129 -17 299 -55
406 -91 103 -35 123 -37 151 -10 30 27 37 56 23 90 -15 36 -46 51 -201 95
-152 44 -308 72 -482 85 -144 11 -170 11 -327 0z"/>
<path d="M1170 3323 c-95 -9 -237 -36 -257 -48 -30 -20 -39 -69 -18 -101 28
-43 51 -47 150 -29 137 26 459 31 614 11 139 -19 290 -52 401 -90 94 -32 124
-33 155 -1 30 29 32 64 4 98 -36 46 -299 120 -542 152 -107 14 -403 19 -507 8z"/>
<path d="M1170 2900 c-188 -21 -233 -32 -264 -62 -23 -24 -27 -34 -22 -61 3
-18 16 -40 28 -51 25 -20 13 -20 233 8 290 37 618 5 908 -88 117 -38 141 -37
171 6 44 62 6 106 -128 148 -232 73 -404 100 -656 105 -107 2 -229 0 -270 -5z"/>
<path d="M1199 2480 c-52 -5 -135 -16 -185 -24 -72 -13 -93 -20 -111 -41 -29
-32 -29 -65 -2 -99 25 -31 45 -32 190 -10 127 21 445 23 569 5 133 -19 255
-46 384 -86 101 -31 123 -34 147 -25 46 20 60 85 27 127 -13 16 -200 77 -320
103 -213 48 -498 68 -699 50z"/>
<path d="M3555 3749 c-191 -15 -359 -48 -553 -110 -84 -27 -94 -33 -109 -65
-16 -32 -16 -37 0 -69 23 -47 48 -51 142 -20 108 36 278 74 405 91 143 19 430
18 577 -2 164 -22 172 -22 200 10 29 34 29 68 1 100 -27 31 -126 50 -338 66
-148 11 -177 11 -325 -1z"/>
<path d="M3435 3315 c-242 -34 -500 -107 -534 -152 -12 -14 -21 -37 -21 -50 0
-27 41 -73 65 -73 8 0 68 16 133 35 255 75 457 101 721 92 97 -3 219 -13 271
-22 72 -12 100 -13 121 -5 52 22 62 105 15 135 -70 44 -559 70 -771 40z"/>
<path d="M3535 2904 c-262 -27 -587 -110 -632 -160 -13 -14 -23 -36 -23 -49 0
-30 39 -76 65 -77 11 0 75 16 141 35 326 96 627 118 966 71 117 -16 128 -16
151 -1 48 32 42 107 -11 136 -56 30 -505 61 -657 45z"/>
<path d="M3585 2483 c-203 -16 -391 -52 -564 -108 -136 -44 -161 -71 -130
-139 20 -42 55 -50 124 -26 310 107 731 143 1050 90 101 -17 131 -13 154 16
27 34 27 67 -1 99 -19 20 -40 28 -108 40 -160 28 -384 40 -525 28z"/>
</g>
</svg>
