<?xml version="1.0" standalone="no"?>
<!DOCTYPE svg PUBLIC "-//W3C//DTD SVG 20010904//EN"
 "http://www.w3.org/TR/2001/REC-SVG-20010904/DTD/svg10.dtd">
<svg version="1.0" xmlns="http://www.w3.org/2000/svg"
 width="512.000000pt" height="512.000000pt" viewBox="0 0 512.000000 512.000000"
 preserveAspectRatio="xMidYMid meet">

<g transform="translate(0.000000,512.000000) scale(0.100000,-0.100000)"
fill="#000000" stroke="none">
<path d="M1700 4984 c-14 -2 -59 -9 -100 -15 -631 -89 -1183 -556 -1384 -1172
-65 -195 -81 -305 -81 -542 0 -179 4 -227 23 -323 49 -242 154 -491 290 -682
86 -122 290 -326 412 -413 181 -128 435 -238 665 -287 129 -28 411 -38 552
-20 119 15 302 60 403 99 l75 29 705 -702 c753 -750 754 -751 900 -797 91 -30
244 -36 335 -15 124 29 210 79 306 175 98 98 149 188 175 313 20 93 13 238
-15 328 -46 145 -46 146 -799 901 l-704 706 15 29 c26 51 75 215 97 329 28
138 38 393 21 532 -83 675 -542 1237 -1182 1447 -177 58 -300 78 -504 81 -99
2 -191 2 -205 -1z m405 -270 c618 -94 1109 -582 1221 -1214 23 -128 23 -362 0
-495 -53 -305 -193 -573 -416 -796 -286 -286 -640 -433 -1045 -432 -532 0
-1003 269 -1276 728 -204 342 -258 777 -145 1167 78 267 252 535 463 710 343
286 755 400 1198 332z m1367 -2521 c71 -70 128 -132 128 -138 0 -6 -119 -129
-265 -275 l-265 -265 -136 136 -136 136 84 58 c106 75 318 286 392 393 32 45
61 82 64 82 4 0 64 -57 134 -127z m759 -760 c471 -473 478 -482 499 -609 26
-159 -66 -333 -213 -402 -97 -46 -229 -46 -327 0 -33 15 -164 139 -493 467
l-447 446 267 267 c147 148 270 268 273 268 3 0 202 -197 441 -437z"/>
</g>
</svg>
